<svg xmlns="http://www.w3.org/2000/svg" viewBox="0 0 64 64">
  <defs>
    <linearGradient id="g" x1="0" y1="0" x2="1" y2="1">
      <stop offset="0" stop-color="#17d6ff"/>
      <stop offset="1" stop-color="#0091ff"/>
    </linearGradient>
  </defs>
  <rect width="64" height="64" rx="16" fill="#05080e"/>
  <rect x="4" y="4" width="56" height="56" rx="13" fill="url(#g)"/>
  <g transform="translate(9,10) scale(0.38)">
    <path d="M8,92 L28,44 Q36,26 46,44 L54,62 Q60,70 66,62 L74,44 Q84,26 92,44 L112,92"
          fill="none" stroke="#04121a" stroke-width="7" stroke-linecap="round" stroke-linejoin="round"/>
    <path d="M22,68 C17,68 14,64 15,60 C16,56 20,56 23,59 C32,68 40,54 50,62 C57,68 63,56 73,62 C82,68 90,56 98,60 C101,61.5 100,65 105,65 C108,65 110,62 109,58"
          fill="none" stroke="#04121a" stroke-width="5" stroke-linecap="round" stroke-linejoin="round"/>
  </g>
</svg>
