<svg xmlns="http://www.w3.org/2000/svg" viewBox="0 0 300 300">
  <style>
    path { fill: #0a0f1a; }
    @media (prefers-color-scheme: dark) {
      path { fill: #f3f6fa; }
    }
  </style>
  <g transform="translate(20,104.44) scale(1.0097)">
    <path fill-rule="evenodd" d="M3.25,87.50 L4.75,84.50 L6.50,82.50 L7.75,79.00 L10.75,73.50 L13.50,69.75 L18.50,61.00 L18.75,59.75 L25.00,48.50 L28.50,43.50 L29.75,40.50 L30.50,40.00 L32.75,34.50 L34.50,32.50 L36.50,29.00 L36.75,27.75 L39.50,23.75 L39.50,23.00 L42.50,19.00 L42.75,17.75 L43.50,17.00 L43.75,15.25 L46.75,10.00 L51.25,4.25 L54.75,2.25 L80.00,2.25 L81.25,3.25 L82.00,3.25 L85.50,6.50 L89.75,13.25 L89.75,14.50 L90.50,15.25 L91.00,17.00 L91.50,17.25 L94.00,22.00 L95.75,24.00 L95.75,25.00 L96.50,25.50 L99.75,31.75 L101.75,34.50 L102.75,37.50 L103.75,38.50 L104.75,41.00 L105.50,41.50 L106.75,44.50 L109.75,48.50 L110.75,51.00 L113.75,55.50 L113.75,57.00 L114.75,58.00 L114.75,58.75 L115.75,59.50 L116.75,62.00 L117.75,63.00 L117.75,63.75 L120.75,68.25 L120.75,69.00 L121.50,69.50 L121.75,70.75 L123.75,73.00 L123.75,73.75 L125.75,76.50 L125.75,78.00 L126.50,78.50 L126.75,80.00 L128.00,81.25 L129.25,81.25 L130.25,80.00 L130.50,78.75 L131.50,78.00 L131.50,77.00 L132.50,76.00 L133.75,73.25 L136.25,70.00 L138.50,66.00 L138.75,64.75 L139.50,64.00 L139.50,62.75 L140.50,61.75 L140.75,60.50 L143.50,57.00 L143.50,56.25 L146.25,52.00 L146.50,50.75 L147.50,50.00 L147.50,49.25 L150.50,45.00 L152.50,40.00 L153.50,39.00 L153.50,38.25 L155.50,34.75 L156.50,34.00 L157.50,31.75 L158.50,30.75 L158.75,29.50 L159.50,29.00 L159.75,27.75 L162.50,23.75 L162.50,22.75 L163.50,22.00 L163.75,20.50 L172.50,6.00 L177.25,2.25 L200.50,2.00 L203.00,2.25 L204.25,3.25 L205.00,3.25 L208.75,6.75 L208.75,7.50 L210.50,10.00 L210.75,11.25 L216.75,21.75 L217.50,22.25 L218.75,25.00 L220.50,27.25 L222.75,32.75 L224.75,35.00 L224.75,35.75 L230.75,46.25 L232.25,48.00 L234.75,53.75 L239.50,61.00 L250.75,82.00 L253.25,85.25 L254.50,88.00 L160.75,88.00 L162.50,84.75 L164.00,83.25 L178.50,83.25 L180.75,82.50 L184.50,82.25 L189.25,80.25 L192.25,78.25 L195.50,75.00 L198.50,69.75 L198.50,67.75 L199.50,64.25 L199.00,54.25 L199.50,51.25 L199.50,46.50 L200.50,44.50 L200.75,42.75 L202.50,39.75 L202.50,39.00 L206.00,34.50 L211.25,31.25 L212.00,30.25 L213.25,30.25 L215.00,28.75 L215.00,26.75 L213.75,25.50 L207.50,25.50 L206.50,26.00 L203.50,26.25 L200.00,27.50 L193.00,32.25 L189.75,35.75 L186.75,40.75 L185.75,43.50 L185.50,46.25 L184.75,47.25 L184.50,50.25 L183.75,51.25 L183.75,52.50 L181.50,56.75 L178.00,60.00 L175.25,61.25 L156.75,61.25 L152.75,62.50 L150.75,64.50 L148.50,69.00 L145.75,72.25 L140.75,80.75 L138.75,82.75 L137.50,86.00 L135.50,88.25 L122.00,88.25 L116.75,81.25 L115.50,78.25 L111.75,72.75 L111.50,71.75 L108.75,68.50 L106.50,64.50 L104.25,62.50 L101.00,61.25 L81.75,61.25 L80.00,60.50 L75.75,56.25 L74.75,54.50 L72.75,49.00 L72.50,46.25 L70.75,42.75 L70.50,41.00 L67.75,36.75 L67.50,35.50 L65.75,33.25 L60.75,29.50 L54.00,26.25 L49.75,25.50 L43.50,25.50 L42.00,26.75 L42.00,28.75 L43.75,30.25 L45.50,30.50 L51.25,34.25 L53.75,37.00 L53.75,38.00 L56.75,43.50 L56.75,45.25 L57.75,47.00 L57.75,49.75 L58.50,52.00 L58.00,63.00 L58.75,66.00 L58.75,68.75 L59.50,69.75 L59.75,71.25 L62.75,75.75 L67.75,80.25 L68.75,80.25 L70.00,81.25 L71.25,81.25 L73.00,82.25 L76.75,82.50 L78.75,83.25 L93.25,83.25 L96.50,86.75 L96.75,88.00 L3.50,88.25 Z M0.00,88.75 L0.00,89.75 L0.50,90.25 L100.25,90.00 L99.75,87.50 L94.00,81.00 L80.00,81.00 L73.75,80.00 L68.25,77.75 L64.00,73.75 L60.75,68.00 L60.00,63.75 L60.50,53.50 L59.75,46.75 L57.50,40.00 L54.50,34.50 L49.25,30.25 L46.25,28.75 L46.25,27.75 L52.75,28.25 L56.00,29.50 L62.25,33.25 L65.50,36.25 L69.50,44.25 L70.75,47.75 L71.75,52.75 L73.75,57.25 L79.25,62.75 L82.00,63.50 L100.75,63.50 L104.25,65.25 L112.50,77.25 L114.75,82.00 L117.75,85.75 L120.00,89.75 L120.75,90.25 L137.00,90.25 L138.50,88.25 L140.00,84.75 L141.50,83.25 L147.50,73.50 L150.50,69.75 L151.50,67.00 L154.25,64.25 L156.75,63.50 L175.25,63.50 L178.75,62.25 L182.50,59.00 L184.25,56.50 L186.50,50.50 L186.50,48.25 L187.50,46.00 L188.00,43.25 L190.00,39.25 L192.50,35.75 L196.75,32.25 L201.75,29.25 L205.00,28.25 L210.75,27.75 L211.00,28.50 L203.50,34.00 L200.75,37.75 L198.75,42.25 L197.50,47.75 L197.50,65.25 L196.75,67.00 L196.50,69.25 L194.00,73.25 L191.00,76.25 L188.50,78.00 L183.75,80.00 L179.25,80.75 L163.00,81.00 L157.50,88.00 L157.25,89.75 L157.75,90.25 L257.50,90.00 L257.50,88.25 L253.00,81.25 L245.25,66.75 L235.75,51.00 L234.50,47.50 L232.00,44.00 L226.50,34.00 L223.75,30.25 L223.50,28.75 L220.50,23.00 L217.75,19.25 L211.75,8.75 L210.50,5.75 L207.50,2.50 L202.75,0.00 L177.50,0.00 L174.50,1.25 L170.75,4.75 L162.75,18.00 L161.50,21.25 L150.75,39.00 L149.25,43.00 L146.75,46.50 L141.50,56.25 L138.75,60.00 L137.75,63.00 L135.75,66.75 L132.75,71.00 L128.75,78.00 L127.75,77.50 L127.50,76.00 L125.50,72.00 L123.75,70.00 L118.50,60.25 L115.75,56.50 L115.50,55.00 L111.75,48.00 L108.75,43.75 L98.50,24.75 L92.00,14.25 L89.75,9.00 L86.25,4.00 L82.75,1.25 L79.50,0.00 L53.75,0.25 L50.00,2.50 L47.75,4.75 L46.50,7.25 L44.75,9.25 L42.75,12.75 L41.50,16.50 L30.75,33.75 L29.50,37.25 L25.50,44.25 L22.75,48.00 L17.50,58.25 L6.75,76.00 L4.75,81.00 L1.75,85.25 Z"/>
  </g>
</svg>
